<svg height="512" viewBox="0 0 512 512" width="512" xmlns="http://www.w3.org/2000/svg"><path d="m139.723 241.431h1.647a9.069 9.069 0 0 1 9.069 9.069v26.838a0 0 0 0 1 0 0h-19.785a0 0 0 0 1 0 0v-26.838a9.069 9.069 0 0 1 9.069-9.069z" fill="#4fd3b2" transform="matrix(.714 .7 -.7 .714 221.679 -24.255)"/><path d="m153.7 247.136-1.177-1.153a9.07 9.07 0 0 0 -12.825.131l-6.705 6.845a9.068 9.068 0 0 1 12.824-.132l1.177 1.153a9.068 9.068 0 0 1 .131 12.825l6.706-6.844a9.07 9.07 0 0 0 -.131-12.825z" fill="#73ffd4"/><path d="m181.711 243.4h1.647a9.069 9.069 0 0 1 9.069 9.069v26.838a0 0 0 0 1 0 0h-19.785a0 0 0 0 1 0 0v-26.838a9.069 9.069 0 0 1 9.069-9.069z" fill="#4fd3b2" transform="matrix(.714 .7 -.7 .714 235.052 -53.077)"/><path d="m195.688 249.105-1.177-1.153a9.069 9.069 0 0 0 -12.825.132l-6.705 6.844a9.067 9.067 0 0 1 12.824-.131l1.177 1.152a9.069 9.069 0 0 1 .131 12.825l6.706-6.844a9.07 9.07 0 0 0 -.131-12.825z" fill="#73ffd4"/><path d="m243.371 351.863h19.785a0 0 0 0 1 0 0v26.837a9.069 9.069 0 0 1 -9.069 9.069h-1.647a9.069 9.069 0 0 1 -9.069-9.069v-26.837a0 0 0 0 1 0 0z" fill="#4fd3b2" transform="matrix(-.714 -.7 .7 -.714 175.364 811.221)"/><path d="m265.24 356.416 1.176 1.152a9.069 9.069 0 0 1 .132 12.825l-6.706 6.844a9.068 9.068 0 0 0 -.131-12.824l-1.177-1.153a9.068 9.068 0 0 0 -12.824.131l6.7-6.844a9.068 9.068 0 0 1 12.83-.131z" fill="#73ffd4"/><path d="m240.543 309.924h19.785a0 0 0 0 1 0 0v26.838a9.069 9.069 0 0 1 -9.069 9.069h-1.647a9.069 9.069 0 0 1 -9.069-9.069v-26.838a0 0 0 0 1 0 0z" fill="#4fd3b2" transform="matrix(-.714 -.7 .7 -.714 199.866 737.345)"/><path d="m262.411 314.477 1.177 1.153a9.067 9.067 0 0 1 .131 12.824l-6.7 6.844a9.068 9.068 0 0 0 -.132-12.824l-1.176-1.153a9.069 9.069 0 0 0 -12.825.131l6.706-6.844a9.067 9.067 0 0 1 12.819-.131z" fill="#73ffd4"/><path d="m232.894 415.168 18.357-18.736-4.242-104.597-41.579 42.439z" fill="#2ccdf2"/><path d="m114.356 262.312-18.356 18.736 80.729 25.577 41.376-42.232z" fill="#2ccdf2"/><path d="m247.009 291.835-10.229 10.44 4.241 104.597 10.23-10.44z" fill="#69dcff"/><path d="m114.356 262.312-10.229 10.441 103.749 2.081 10.229-10.441z" fill="#69dcff"/><path d="m152.272 331.587-47.372 12.752-3.966 15.154 35.291 4.6c-3.154-11.215 3.414-19.61 16.047-32.506z" fill="#2ccdf2"/><path d="m180.733 359.482c-12.039 12.287-20.36 19.369-32.166 16.7l5.319 35.189 15.07-4.276z" fill="#2ccdf2"/><path d="m140.412 343.693q.658-.153 1.232-.237a129.99 129.99 0 0 1 10.628-11.869l-47.372 12.752-2.509 9.589z" fill="#69dcff"/><path d="m168.872 371.588-9.452 38.212 9.536-2.706 11.777-47.614a125.454 125.454 0 0 1 -11.533 10.758c-.083.414-.187.862-.328 1.35z" fill="#69dcff"/><path d="m292.428 217.005c-7.861-7.7-23.672-4.311-45.8 18.27l-28.527 29.118-41.376 42.232-24.457 24.962c-12.633 12.9-19.2 21.291-16.047 32.5l6.173 6.047 6.169 6.045c11.806 2.668 20.127-4.414 32.166-16.7l24.7-25.208 41.579-42.439 28.092-28.668c22.122-22.581 25.188-38.458 17.328-46.159z" fill="#fff"/><path d="m293.2 217.833c-2.126 8.045-8.506 18.262-20.428 30.431l-28.09 28.67-41.582 42.439-24.7 25.209c-9.081 9.269-16.047 15.575-23.99 16.969a13.484 13.484 0 0 1 -11.717-3.738l-2.628-2.575-3.358-3.29a18.736 18.736 0 0 0 -.487 12.143l6.173 6.047 6.169 6.045c11.806 2.668 20.127-4.414 32.166-16.7l24.7-25.208 41.579-42.439 28.093-28.672c21.359-21.802 24.951-37.352 18.1-45.331z" fill="#edebe8"/><circle cx="397.3" cy="115.533" fill="#4fd3b2" r="18.698" transform="matrix(.325 -.946 .946 .325 158.942 453.735)"/><g fill="#17171d"><path d="m243.775 232.476-27.318 27.883-14.852-.3a13.077 13.077 0 0 0 -3.118-13.813l-1.177-1.146a13.084 13.084 0 0 0 -18.481.189l-13.76 14.044-5.92-.118a13.08 13.08 0 0 0 -2.65-14.931l-1.177-1.152a13.068 13.068 0 0 0 -18.481.188l-14.841 15.145-7.563-.152a3.992 3.992 0 0 0 -2.938 1.2l-18.356 18.735a4 4 0 0 0 1.649 6.613l74.526 23.612-19.141 19.536-46.316 12.468a4 4 0 0 0 -2.83 2.849l-3.967 15.154a4 4 0 0 0 3.353 4.979l33.963 4.425 10.432 10.22 5.119 33.866a4 4 0 0 0 5.046 3.25l15.07-4.276a4 4 0 0 0 2.791-2.887l11.516-46.557 19.38-19.782 25.373 74.734a4 4 0 0 0 2.9 2.613 3.954 3.954 0 0 0 .889.1 4 4 0 0 0 2.857-1.2l18.356-18.736a4 4 0 0 0 1.139-2.961l-.336-8.284 14.488-14.792a13.084 13.084 0 0 0 -.189-18.481l-1.177-1.152a13.078 13.078 0 0 0 -14.626-2.514l-.247-6.1 13.41-13.689a13.066 13.066 0 0 0 -.189-18.481l-1.177-1.153a13.073 13.073 0 0 0 -13.516-2.964l-.618-15.256 26.88-27.436c10.9-11.13 17.92-21.294 20.851-30.209 2.9-8.828 1.631-16.5-3.58-21.607-5.134-5.036-20.433-13.33-51.447 18.326zm-9.185 175.245-24.582-72.405 33.38-34.069 3.8 93.62zm20.682-48.375a5.069 5.069 0 0 1 7.168-.073l1.177 1.152a5.076 5.076 0 0 1 .073 7.169l-9.224 9.414-.656-16.17zm-2.828-41.939a5.075 5.075 0 0 1 7.168-.073l1.177 1.152a5.07 5.07 0 0 1 .073 7.169l-8.141 8.31-.656-16.171zm-67.9-66.524a5.033 5.033 0 0 1 3.568-1.521 4.85 4.85 0 0 1 3.6 1.448l1.177 1.152a5.066 5.066 0 0 1 .073 7.168l-.727.743-16.18-.324zm-41.989-1.969a5.074 5.074 0 0 1 7.169-.073l1.176 1.153a5.069 5.069 0 0 1 .074 7.167l-1.811 1.848-16.181-.324zm33.037 53.155-72.181-22.869 12.589-12.854 92.765 1.86-19.116 19.512zm-67.41 45.531 31.853-8.574c-5.456 6.689-8.837 13.1-8.577 20.412l-25.5-3.323zm57.448 56.284-8.468 2.4-3.86-25.54h.119c7.388 0 13.679-3.469 20.139-8.924zm125.578-170.629c-2.51 7.632-9.068 17.007-18.967 27.11l-94.366 96.318c-11.973 12.222-18.636 17.292-27.358 15.81l-10.691-10.473c-1.868-8.4 3.119-15.2 15.3-27.633l94.361-96.312c17.741-18.11 33.121-25.088 40.138-18.213 3.006 2.938 3.537 7.448 1.583 13.393z"/><path d="m362.9 144.03-7.071 7.071a4 4 0 1 0 5.657 5.656l7.071-7.071a4 4 0 1 0 -5.657-5.656z"/><path d="m307.75 199.184-7.071 7.071a4 4 0 0 0 5.657 5.657l7.071-7.071a4 4 0 0 0 -5.657-5.657z"/><path d="m344.519 162.415-7.071 7.071a4 4 0 1 0 5.657 5.656l7.071-7.071a4 4 0 1 0 -5.657-5.656z"/><path d="m326.134 180.8-7.07 7.072a4 4 0 1 0 5.657 5.656l7.071-7.071a4 4 0 0 0 -5.658-5.657z"/><path d="m415.109 101.46a22.689 22.689 0 0 0 -36.524 26.888l-4.367 4.367a4 4 0 0 0 5.657 5.658l4.316-4.316a22.561 22.561 0 0 0 10.466 4.02 23.16 23.16 0 0 0 2.687.157 22.7 22.7 0 0 0 17.765-36.774zm-3.209 15.784a14.7 14.7 0 1 1 -3.066-10.824 14.716 14.716 0 0 1 3.066 10.824z"/></g></svg>